{
  "accessors": [
    {
      "bufferView": 2,
      "componentType": 5126,
      "count": 3484,
      "max": [
        4.7574143409729,
        0.6407110691070557,
        7.661132335662842
      ],
      "min": [
        -4.699268341064453,
        -0.6407110691070557,
        -12.471050262451172
      ],
      "type": "VEC3"
    },
    {
      "bufferView": 2,
      "byteOffset": 41808,
      "componentType": 5126,
      "count": 3484,
      "max": [
        1.0,
        1.0,
        1.0
      ],
      "min": [
        -1.0,
        -1.0,
        -1.0
      ],
      "type": "VEC3"
    },
    {
      "bufferView": 1,
      "componentType": 5126,
      "count": 3484,
      "max": [
        1.0,
        0.974502682685852
      ],
      "min": [
        0.0,
        0.0
      ],
      "type": "VEC2"
    },
    {
      "bufferView": 0,
      "componentType": 5125,
      "count": 16191,
      "type": "SCALAR"
    }
  ],
  "asset": {
    "extras": {
      "author": "Pooja_Maurya (https://sketchfab.com/Pooja_Maurya)",
      "license": "CC-BY-4.0 (http://creativecommons.org/licenses/by/4.0/)",
      "source": "https://sketchfab.com/3d-models/key-6bf146357b44400c9478f843ca4ae014",
      "title": "Key"
    },
    "generator": "Sketchfab-12.66.0",
    "version": "2.0"
  },
  "bufferViews": [
    {
      "buffer": 0,
      "byteLength": 64764,
      "name": "floatBufferViews",
      "target": 34963
    },
    {
      "buffer": 0,
      "byteLength": 27872,
      "byteOffset": 64764,
      "byteStride": 8,
      "name": "floatBufferViews",
      "target": 34962
    },
    {
      "buffer": 0,
      "byteLength": 83616,
      "byteOffset": 92636,
      "byteStride": 12,
      "name": "floatBufferViews",
      "target": 34962
    }
  ],
  "buffers": [
    {
      "byteLength": 176252,
      "uri": "scene.bin"
    }
  ],
  "images": [
    {
      "uri": "textures/keyMT_baseColor.jpeg"
    }
  ],
  "materials": [
    {
      "doubleSided": true,
      "name": "keyMT",
      "pbrMetallicRoughness": {
        "baseColorTexture": {
          "index": 0
        },
        "metallicFactor": 0.6583687503420098,
        "roughnessFactor": 0.6
      }
    }
  ],
  "meshes": [
    {
      "name": "pTorus6_keyMT_0",
      "primitives": [
        {
          "attributes": {
            "NORMAL": 1,
            "POSITION": 0,
            "TEXCOORD_0": 2
          },
          "indices": 3,
          "material": 0,
          "mode": 4
        }
      ]
    }
  ],
  "nodes": [
    {
      "children": [
        1
      ],
      "matrix": [
        1.0,
        0.0,
        0.0,
        0.0,
        0.0,
        2.220446049250313e-16,
        -1.0,
        0.0,
        0.0,
        1.0,
        2.220446049250313e-16,
        0.0,
        0.0,
        0.0,
        0.0,
        1.0
      ],
      "name": "Sketchfab_model"
    },
    {
      "children": [
        2
      ],
      "matrix": [
        1.0,
        0.0,
        0.0,
        0.0,
        0.0,
        0.0,
        1.0,
        0.0,
        0.0,
        -1.0,
        0.0,
        0.0,
        0.0,
        0.0,
        0.0,
        1.0
      ],
      "name": "bfa33672bb12490a8e0669ae7d3546ef.fbx"
    },
    {
      "children": [
        3
      ],
      "name": "RootNode"
    },
    {
      "children": [
        4
      ],
      "matrix": [
        0.27039971331003665,
        -0.009613663431717512,
        -0.1449451278649813,
        0.0,
        -0.14310732281128,
        0.03494588263086979,
        -0.2692890584844874,
        0.0,
        0.02493605370066047,
        0.3048013785026164,
        0.026302670268751147,
        0.0,
        0.08118179440498352,
        3.8444807529449463,
        -0.35956719517707825,
        1.0
      ],
      "name": "pTorus6"
    },
    {
      "mesh": 0,
      "name": "pTorus6_keyMT_0"
    }
  ],
  "samplers": [
    {
      "magFilter": 9729,
      "minFilter": 9987,
      "wrapS": 10497,
      "wrapT": 10497
    }
  ],
  "scene": 0,
  "scenes": [
    {
      "name": "Sketchfab_Scene",
      "nodes": [
        0
      ]
    }
  ],
  "textures": [
    {
      "sampler": 0,
      "source": 0
    }
  ]
}
